<svg version="1.2" xmlns="http://www.w3.org/2000/svg" viewBox="0 0 1503 925" width="1503" height="925">
	<title>fpt-logo-svg-svg</title>
	<style>
		.s0 { fill: #0b67b1 } 
		.s1 { fill: #f27023 } 
		.s2 { fill: #0db04b } 
		.s3 { fill: #ffffff } 
	</style>
	<path id="Layer" class="s0" d="m295.6 155c-20.1 0-40 3.2-59.2 9.3-19.1 6.2-37.1 15.4-53.4 27.1-16.3 11.8-30.7 26.1-42.5 42.3-11.9 16.2-21.2 34.2-27.5 53.2-0.6 1.8-1.1 3.5-1.6 5.3l-4.2 16.8-106.9 462h269c19 0 37.8-3 55.9-8.7 18.1-5.7 35.2-14.1 50.7-25 15.5-10.9 29.3-24 40.8-39.1 11.6-15 20.8-31.7 27.3-49.5l10.2-44 104.1-449.7z"/>
	<path id="Layer" class="s1" d="m803.2 1c-20.8 0-41.5 3.4-61.2 10-19.7 6.6-38.2 16.3-54.7 28.9-16.6 12.5-31 27.6-42.8 44.8-11.7 17.1-20.6 36-26.2 56q-0.7 2.3-1.3 4.6-0.6 2.3-1.1 4.6-0.6 2.3-1 4.6-0.5 2.3-0.9 4.6l-177 765.9h262.5c21.3 0 42.4-3.5 62.5-10.4 20.1-6.9 39-17.1 55.7-30.2 16.8-13.1 31.3-28.8 42.9-46.6 11.7-17.8 20.2-37.5 25.4-58.1l180-778.7z"/>
	<path id="Layer" class="s2" d="m1239.9 155c-19.4 0-38.7 2.9-57.2 8.7-18.5 5.8-36 14.3-52 25.3-16 11-30.2 24.4-42.1 39.7-12 15.2-21.6 32.2-28.4 50.3-1.5 3.7-6.4 19-6.4 19l-109.2 473h262.6c21.4 0 42.6-3.6 62.7-10.5 20.2-7 39.1-17.2 55.9-30.4 16.8-13.1 31.3-28.9 42.9-46.8 11.6-17.9 20.1-37.6 25.3-58.3l108.4-470z"/>
	<path id="Layer" class="s3" d="m1387.5 322.1q-3.6-3.5-7.9-6.3-4.3-2.8-9-4.7-4.8-1.8-9.8-2.7-5.1-0.8-10.2-0.6h-237.9v2q-0.3 1.6-0.6 3.3-0.3 1.6-0.5 3.3-0.2 1.6-0.3 3.3-0.2 1.6-0.2 3.3-0.2 5 0.6 9.9 0.8 5 2.6 9.6 1.7 4.7 4.4 8.9 2.8 4.2 6.3 7.8 3.6 3.6 7.9 6.4 4.2 2.8 9 4.7 4.8 1.8 9.8 2.7 5 0.9 10.1 0.7h51.4l-55.8 241.8h3.2q6.6-0.1 13.2-1.4 6.5-1.2 12.7-3.5 6.2-2.4 11.9-5.7 5.7-3.4 10.8-7.7 5.3-4.1 9.8-9.1 4.5-4.9 8.1-10.5 3.6-5.7 6.2-11.9 2.6-6.1 4.1-12.7l41.1-179.3h120.9v-2.2q0.4-1.6 0.7-3.3 0.3-1.7 0.5-3.4 0.2-1.6 0.3-3.3 0.1-1.7 0.2-3.4 0.2-5-0.6-9.9-0.7-4.9-2.5-9.5-1.7-4.6-4.4-8.8-2.6-4.2-6.1-7.8z"/>
	<path id="Layer" fill-rule="evenodd" class="s3" d="m884.8 308q5.1 0.8 9.9 2.7 4.8 1.9 9.1 4.6 4.3 2.8 8 6.4 3.6 3.5 6.3 7.7 2.7 4.1 4.5 8.8 1.8 4.6 2.6 9.5 0.8 4.9 0.6 9.9 0 1.7-0.1 3.4-0.2 1.7-0.4 3.4-0.1 1.7-0.4 3.4-0.3 1.6-0.6 3.3l-13.2 55.8q-1.6 6.5-4.3 12.8-2.6 6.2-6.3 11.9-3.7 5.7-8.2 10.7-4.6 5-9.9 9.1-5.1 4.3-10.9 7.6-5.7 3.4-11.9 5.7-6.2 2.3-12.8 3.5-6.5 1.2-13.1 1.3h-160.2l-14.5 63.3q-1.5 6.6-4.1 12.7-2.6 6.2-6.2 11.8-3.6 5.7-8.1 10.6-4.5 5-9.8 9.1-5 4.3-10.7 7.7-5.8 3.4-12 5.8-6.2 2.3-12.7 3.5-6.5 1.3-13.2 1.4h-3.2l71-308h224.5q5.2-0.2 10.3 0.6zm-196.2 115.7h159.3l12-50.5h-159.3z"/>
	<path id="Layer" class="s3" d="m182.4 325.6q-4.8 3.7-9 8.1-4.3 4.4-7.8 9.4-3.5 4.9-6.2 10.4-2.7 5.4-4.5 11.2l-57.7 250.8h3.2q6.6-0.1 13.1-1.3 6.5-1.3 12.7-3.6 6.2-2.3 11.9-5.7 5.7-3.4 10.8-7.7 5.3-4.1 9.8-9.1 4.5-4.9 8.1-10.6 3.6-5.6 6.3-11.8 2.6-6.1 4.1-12.7l14.8-63.7h110.7q6.7-0.1 13.3-1.4 6.6-1.3 12.8-3.7 6.3-2.3 12.1-5.7 5.7-3.5 10.8-7.8 5.4-4.1 9.9-9.1 4.6-5 8.3-10.7 3.6-5.6 6.2-11.9 2.7-6.2 4.2-12.8l0.7-3.1h-173.7l11.6-50.2h164.4q6.6-0.1 13.1-1.3 6.5-1.3 12.7-3.6 6.2-2.3 11.9-5.7 5.7-3.3 10.7-7.6 5.3-4.2 9.8-9.2 4.5-5 8.1-10.7 3.6-5.7 6.3-11.8 2.6-6.2 4.2-12.8l0.8-3.2h-229.8q-6.6 0.1-13.2 1.4-6.5 1.2-12.8 3.6-6.2 2.4-11.9 5.8-5.7 3.4-10.8 7.8z"/>
</svg>