<svg width="1000" height="1000" viewBox="0 0 1000 1000" fill="none" xmlns="http://www.w3.org/2000/svg">
<path d="M1000 150C1000 67.1573 932.843 0 850 0L150 0C67.1573 0 0 67.1573 0 150L0 850C0 932.843 67.1573 1000 150 1000H850C932.843 1000 1000 932.843 1000 850V150Z" fill="url(#paint0_linear_927_2)"/>
<circle cx="500" cy="500" r="375" fill="white"/>
<path d="M553.492 224.118C546.759 227.815 542.575 234.886 542.575 242.567V537.137C542.575 555.282 532.744 572.004 516.889 580.827L485.799 598.129C479.374 601.705 475.39 608.48 475.39 615.833V615.833C475.39 631.255 491.934 641.023 505.437 633.574L558.818 604.128C574.766 595.332 584.668 578.56 584.668 560.347V242.567C584.668 226.565 567.518 216.417 553.492 224.118V224.118Z" fill="url(#paint1_linear_927_2)"/>
<path d="M553.492 224.118C546.759 227.815 542.575 234.886 542.575 242.567V537.137C542.575 555.282 532.744 572.004 516.889 580.827L485.799 598.129C479.374 601.705 475.39 608.48 475.39 615.833V615.833C475.39 631.255 491.934 641.023 505.437 633.574L558.818 604.128C574.766 595.332 584.668 578.56 584.668 560.347V242.567C584.668 226.565 567.518 216.417 553.492 224.118V224.118Z" fill="black" fill-opacity="0.2"/>
<path d="M389.577 513.35C373.658 522.155 363.778 538.911 363.778 557.102V635.182C363.778 653.257 354.023 669.925 338.264 678.776L310.332 694.466C303.95 698.05 300 704.8 300 712.119V712.119C300 727.511 316.495 737.274 329.989 729.868L380.354 702.225C396.353 693.444 406.297 676.644 406.297 658.393V579.979C406.297 561.893 416.063 545.218 431.837 536.37L465.079 517.725C471.447 514.153 475.39 507.42 475.39 500.118V500.118C475.39 484.742 458.887 475.011 445.432 482.454L389.577 513.35Z" fill="url(#paint2_linear_927_2)"/>
<path d="M389.577 513.35C373.658 522.155 363.778 538.911 363.778 557.102V635.182C363.778 653.257 354.023 669.925 338.264 678.776L310.332 694.466C303.95 698.05 300 704.8 300 712.119V712.119C300 727.511 316.495 737.274 329.989 729.868L380.354 702.225C396.353 693.444 406.297 676.644 406.297 658.393V579.979C406.297 561.893 416.063 545.218 431.837 536.37L465.079 517.725C471.447 514.153 475.39 507.42 475.39 500.118V500.118C475.39 484.742 458.887 475.011 445.432 482.454L389.577 513.35Z" fill="black" fill-opacity="0.2"/>
<path d="M643.736 300.128C637.052 303.839 632.906 310.883 632.906 318.528V591.362C632.906 609.544 623.036 626.293 607.13 635.102L416.804 740.508C410.321 744.099 406.297 750.927 406.297 758.338V758.338C406.297 773.884 422.988 783.727 436.585 776.192C494.01 744.365 594.348 688.892 649.347 658.402C665.219 649.603 675 632.91 675 614.762V318.528C675 302.483 657.765 292.339 643.736 300.128V300.128Z" fill="url(#paint3_linear_927_2)"/>
<path d="M643.736 300.128C637.052 303.839 632.906 310.883 632.906 318.528V591.362C632.906 609.544 623.036 626.293 607.13 635.102L416.804 740.508C410.321 744.099 406.297 750.927 406.297 758.338V758.338C406.297 773.884 422.988 783.727 436.585 776.192C494.01 744.365 594.348 688.892 649.347 658.402C665.219 649.603 675 632.91 675 614.762V318.528C675 302.483 657.765 292.339 643.736 300.128V300.128Z" fill="black" fill-opacity="0.2"/>
<path d="M395.772 452.883C402.498 449.108 406.663 441.995 406.663 434.281V342.565C406.663 326.459 389.496 316.163 375.287 323.747V323.747C368.339 327.455 364 334.69 364 342.565V434.281C364 450.587 381.552 460.864 395.772 452.883V452.883Z" fill="url(#paint4_linear_927_2)"/>
<path d="M395.772 452.883C402.498 449.108 406.663 441.995 406.663 434.281V342.565C406.663 326.459 389.496 316.163 375.287 323.747V323.747C368.339 327.455 364 334.69 364 342.565V434.281C364 450.587 381.552 460.864 395.772 452.883V452.883Z" fill="black" fill-opacity="0.2"/>
<defs>
<linearGradient id="paint0_linear_927_2" x1="-1.11759e-05" y1="4.84288e-05" x2="1000" y2="1000" gradientUnits="userSpaceOnUse">
<stop offset="0.00264589" stop-color="#F5F5F5"/>
<stop offset="1" stop-color="#E5E5E5"/>
</linearGradient>
<linearGradient id="paint1_linear_927_2" x1="487.5" y1="207" x2="487.5" y2="793" gradientUnits="userSpaceOnUse">
<stop stop-color="#FF0000"/>
<stop offset="1" stop-color="#0077B6"/>
</linearGradient>
<linearGradient id="paint2_linear_927_2" x1="487.5" y1="207" x2="487.5" y2="793" gradientUnits="userSpaceOnUse">
<stop stop-color="#FF0000"/>
<stop offset="1" stop-color="#0077B6"/>
</linearGradient>
<linearGradient id="paint3_linear_927_2" x1="487.5" y1="207" x2="487.5" y2="793" gradientUnits="userSpaceOnUse">
<stop stop-color="#FF0000"/>
<stop offset="1" stop-color="#0077B6"/>
</linearGradient>
<linearGradient id="paint4_linear_927_2" x1="420.5" y1="612" x2="420.5" y2="307" gradientUnits="userSpaceOnUse">
<stop stop-color="#FF0000"/>
<stop offset="1" stop-color="#0077B6"/>
</linearGradient>
</defs>
</svg>
