<svg width="750" height="750" viewBox="0 0 750 750" fill="none" xmlns="http://www.w3.org/2000/svg">
<circle cx="375" cy="375" r="375" fill="white"/>
<path d="M428.492 99.1182C421.759 102.815 417.575 109.886 417.575 117.567V412.137C417.575 430.282 407.744 447.004 391.889 455.827L360.799 473.129C354.374 476.705 350.39 483.48 350.39 490.833C350.39 506.255 366.934 516.023 380.437 508.574L433.818 479.128C449.766 470.332 459.668 453.56 459.668 435.347V117.567C459.668 101.565 442.518 91.4167 428.492 99.1182Z" fill="url(#paint0_linear_927_2)"/>
<path d="M428.492 99.1182C421.759 102.815 417.575 109.886 417.575 117.567V412.137C417.575 430.282 407.744 447.004 391.889 455.827L360.799 473.129C354.374 476.705 350.39 483.48 350.39 490.833C350.39 506.255 366.934 516.023 380.437 508.574L433.818 479.128C449.766 470.332 459.668 453.56 459.668 435.347V117.567C459.668 101.565 442.518 91.4167 428.492 99.1182Z" fill="black" fill-opacity="0.2"/>
<path d="M264.577 388.349C248.658 397.155 238.778 413.911 238.778 432.102V510.182C238.778 528.257 229.023 544.925 213.264 553.776L185.332 569.466C178.95 573.05 175 579.8 175 587.119C175 602.511 191.495 612.274 204.989 604.868L255.354 577.225C271.353 568.444 281.297 551.644 281.297 533.393V454.979C281.297 436.893 291.063 420.218 306.837 411.37L340.079 392.725C346.447 389.153 350.39 382.42 350.39 375.118C350.39 359.742 333.887 350.011 320.432 357.453L264.577 388.349Z" fill="url(#paint1_linear_927_2)"/>
<path d="M264.577 388.349C248.658 397.155 238.778 413.911 238.778 432.102V510.182C238.778 528.257 229.023 544.925 213.264 553.776L185.332 569.466C178.95 573.05 175 579.8 175 587.119C175 602.511 191.495 612.274 204.989 604.868L255.354 577.225C271.353 568.444 281.297 551.644 281.297 533.393V454.979C281.297 436.893 291.063 420.218 306.837 411.37L340.079 392.725C346.447 389.153 350.39 382.42 350.39 375.118C350.39 359.742 333.887 350.011 320.432 357.453L264.577 388.349Z" fill="black" fill-opacity="0.2"/>
<path d="M518.736 175.128C512.052 178.839 507.906 185.883 507.906 193.528V466.362C507.906 484.544 498.036 501.293 482.13 510.102L291.804 615.508C285.321 619.099 281.297 625.927 281.297 633.338C281.297 648.884 297.988 658.727 311.585 651.192C369.01 619.365 469.348 563.892 524.347 533.402C540.219 524.603 550 507.91 550 489.762V193.528C550 177.483 532.765 167.339 518.736 175.128Z" fill="url(#paint2_linear_927_2)"/>
<path d="M518.736 175.128C512.052 178.839 507.906 185.883 507.906 193.528V466.362C507.906 484.544 498.036 501.293 482.13 510.102L291.804 615.508C285.321 619.099 281.297 625.927 281.297 633.338C281.297 648.884 297.988 658.727 311.585 651.192C369.01 619.365 469.348 563.892 524.347 533.402C540.219 524.603 550 507.91 550 489.762V193.528C550 177.483 532.765 167.339 518.736 175.128Z" fill="black" fill-opacity="0.2"/>
<path d="M270.772 327.883C277.498 324.108 281.663 316.995 281.663 309.281V217.565C281.663 201.459 264.496 191.163 250.287 198.747C243.339 202.455 239 209.69 239 217.565V309.281C239 325.587 256.552 335.864 270.772 327.883Z" fill="url(#paint3_linear_927_2)"/>
<path d="M270.772 327.883C277.498 324.108 281.663 316.995 281.663 309.281V217.565C281.663 201.459 264.496 191.163 250.287 198.747C243.339 202.455 239 209.69 239 217.565V309.281C239 325.587 256.552 335.864 270.772 327.883Z" fill="black" fill-opacity="0.2"/>
<defs>
<linearGradient id="paint0_linear_927_2" x1="362.5" y1="82" x2="362.5" y2="668" gradientUnits="userSpaceOnUse">
<stop stop-color="#FF0000"/>
<stop offset="1" stop-color="#0077B6"/>
</linearGradient>
<linearGradient id="paint1_linear_927_2" x1="362.5" y1="82" x2="362.5" y2="668" gradientUnits="userSpaceOnUse">
<stop stop-color="#FF0000"/>
<stop offset="1" stop-color="#0077B6"/>
</linearGradient>
<linearGradient id="paint2_linear_927_2" x1="362.5" y1="82" x2="362.5" y2="668" gradientUnits="userSpaceOnUse">
<stop stop-color="#FF0000"/>
<stop offset="1" stop-color="#0077B6"/>
</linearGradient>
<linearGradient id="paint3_linear_927_2" x1="295.5" y1="487" x2="295.5" y2="182" gradientUnits="userSpaceOnUse">
<stop stop-color="#FF0000"/>
<stop offset="1" stop-color="#0077B6"/>
</linearGradient>
</defs>
</svg>
